<?xml version="1.0" encoding="UTF-8"?>
<svg id="Layer_1" xmlns="http://www.w3.org/2000/svg" version="1.1" viewBox="0 0 228.59 302.91">
  <!-- Generator: Adobe Illustrator 29.6.1, SVG Export Plug-In . SVG Version: 2.1.1 Build 9)  -->
  <defs>
    <style>
      .st0 {
        fill: #fff;
      }
    </style>
  </defs>
  <path d="M188.06,37.57c6.11,2.34,7.71,11.22,4.25,16.45-1.05,1.6-3.61,2.4-2.82,4.8,6.58,10.38,15.53,20.05,19.67,31.78,2.25,6.37,3.54,13.7,3.93,20.45,2.13,36.99-.99,74.93-.73,111.92-8.63,40.7-38.16,52.82-76.71,52.48-16.93-.15-33.75-.17-50.68,0-25.9.27-47.81-7.05-60.84-30.8-12.32-22.45-7.6-66.2-7.36-92.08.29-29.93-4.74-51.62,11.96-78.31,1.8-2.88,10.03-13.22,10.42-15.34.4-2.23-1.72-1.81-3.07-3.13-5.99-5.88-4.19-14.21,2.41-18.56l-.31-.99c-9.1-4.81-7.04-18.2,3.26-19.77l144.25.07c10.22,1.39,11.28,15.69,2.37,20.04v.97ZM42.26,23.23c-5.03,1.11-3.82,8.42,1.16,8.44h139.7c4.48.03,5.95-5.96,2.28-8.23l-143.15-.2ZM40.01,43.7c-3.44,4.27,1.65,8.19,6.04,7.74h134.45c5.78.24,9.83-4.48,4.9-8.9l-143.12-.17c-.45.1-1.99.99-2.27,1.33ZM52.78,60.77c-11.28,15.24-24.01,31.08-25.48,50.95-2.52,34.04,1.86,71.05,0,105.4,1.87,24.84,17.64,45.82,43.16,49.08,18.66,2.39,40.97.23,59.92-.02,8.94-.12,17.14,1.15,26.38.02,24.99-3.04,44.14-22.11,47.11-47.11-2.13-35.67,2.89-74.74,0-110.01-1.26-15.42-14.35-34-24.1-45.74-.89-1.07-1.77-2.4-3.25-2.68l-123.73.11Z"/>
  <path class="st0" d="M40.01,43.7c.28-.34,1.82-1.23,2.27-1.33l143.12.17c4.93,4.42.87,9.14-4.9,8.9H46.05c-4.38.45-9.48-3.47-6.04-7.74Z"/>
  <path class="st0" d="M42.26,23.23l143.15.2c3.67,2.28,2.2,8.26-2.28,8.23H43.42c-4.98-.02-6.19-7.33-1.16-8.44Z"/>
  <path d="M35.75,124.45c.53-.84-.06-10.49.12-12.74.9-11.49,6.49-25.35,14.5-33.6l42.83,3.92c1.21,1.24.96,4.49-.67,5.29s-13.44.44-16.14.32c-7.69-.35-15.29-1.98-22.95-2.53-5.13,5.82-7.61,13.44-9.49,20.84.17,35.67-3.09,74.36-.87,109.88,1.41,22.64,17.95,38.89,40.53,40.51,18.15,1.3,46.4,1.19,64.62,0,21.57-1.4,39.61-16.14,42.38-38-1.93-34.55,2.88-72.48.07-106.64-.39-4.72-1.99-10.27-3.83-14.62-1.55-3.67-9.03-13.87-9.15-15.8-.23-3.88,3.6-5.38,6.76-3.56,1.08.62,3.76,4.57,4.66,5.88,5.44,7.89,8.87,17.91,10.15,27.4-2.14,34.84,2.78,72.95-.04,107.41-2.21,27.1-24.88,44.93-51.02,46.49-19.84,1.18-48.09,1.21-67.92,0-26.69-1.63-46.61-20.17-48.39-47.14-1.93-29.14,1.45-60.28-.04-89.63.49-3.62,3.4-2.93,3.88-3.69Z"/>
</svg>